<svg width="40" height="40" viewBox="0 0 40 40" fill="none" xmlns="http://www.w3.org/2000/svg">
<path fill-rule="evenodd" clip-rule="evenodd" d="M6.6665 5.8335C6.6665 4.45278 7.78579 3.3335 9.1665 3.3335H25.631C26.294 3.3335 26.9299 3.59689 27.3987 4.06573L32.6009 9.26793C33.0698 9.73677 33.3332 10.3727 33.3332 11.0357V34.1668C33.3332 35.5475 32.2139 36.6668 30.8332 36.6668H9.1665C7.78579 36.6668 6.6665 35.5475 6.6665 34.1668V5.8335ZM31.6665 11.6668H25.8332C25.3729 11.6668 24.9998 11.2937 24.9998 10.8335V5.00016H9.1665C8.70627 5.00016 8.33317 5.37326 8.33317 5.8335V34.1668C8.33317 34.6271 8.70627 35.0002 9.1665 35.0002H30.8332C31.2934 35.0002 31.6665 34.6271 31.6665 34.1668V11.6668Z" fill="#F1F2F4"/>
<path d="M6.6665 15.8335H33.3332V25.8335H6.6665V15.8335Z" fill="#3B82F6"/>
<path d="M13.1157 24.1669H10.8755V18.1063H13.1127C13.7302 18.1063 14.2619 18.2276 14.7078 18.4703C15.1556 18.711 15.5008 19.0582 15.7435 19.512C15.9862 19.9637 16.1075 20.5043 16.1075 21.1336C16.1075 21.765 15.9862 22.3075 15.7435 22.7612C15.5028 23.215 15.1586 23.5632 14.7107 23.8059C14.2629 24.0466 13.7312 24.1669 13.1157 24.1669ZM12.3403 22.9181H13.0594C13.3988 22.9181 13.6858 22.8609 13.9206 22.7464C14.1573 22.6301 14.3359 22.4416 14.4562 22.1812C14.5785 21.9188 14.6397 21.5696 14.6397 21.1336C14.6397 20.6976 14.5785 20.3504 14.4562 20.092C14.3339 19.8316 14.1534 19.6441 13.9147 19.5297C13.6779 19.4133 13.3859 19.3551 13.0387 19.3551H12.3403V22.9181Z" fill="white"/>
<path d="M22.683 21.1366C22.683 21.8034 22.5548 22.3686 22.2983 22.8323C22.0418 23.2959 21.6946 23.648 21.2566 23.8887C20.8206 24.1294 20.3314 24.2498 19.7888 24.2498C19.2443 24.2498 18.7541 24.1284 18.3181 23.8858C17.8821 23.6431 17.5358 23.291 17.2794 22.8293C17.0249 22.3657 16.8976 21.8015 16.8976 21.1366C16.8976 20.4698 17.0249 19.9046 17.2794 19.4409C17.5358 18.9773 17.8821 18.6252 18.3181 18.3845C18.7541 18.1438 19.2443 18.0234 19.7888 18.0234C20.3314 18.0234 20.8206 18.1438 21.2566 18.3845C21.6946 18.6252 22.0418 18.9773 22.2983 19.4409C22.5548 19.9046 22.683 20.4698 22.683 21.1366ZM21.1856 21.1366C21.1856 20.742 21.1294 20.4086 21.0169 20.1364C20.9065 19.8641 20.7467 19.6579 20.5375 19.5179C20.3304 19.3778 20.0808 19.3078 19.7888 19.3078C19.4988 19.3078 19.2493 19.3778 19.0401 19.5179C18.831 19.6579 18.6702 19.8641 18.5578 20.1364C18.4473 20.4086 18.3921 20.742 18.3921 21.1366C18.3921 21.5312 18.4473 21.8646 18.5578 22.1368C18.6702 22.4091 18.831 22.6153 19.0401 22.7553C19.2493 22.8954 19.4988 22.9654 19.7888 22.9654C20.0808 22.9654 20.3304 22.8954 20.5375 22.7553C20.7467 22.6153 20.9065 22.4091 21.0169 22.1368C21.1294 21.8646 21.1856 21.5312 21.1856 21.1366Z" fill="white"/>
<path d="M29.0396 20.3021H27.5599C27.5402 20.1502 27.4997 20.0131 27.4386 19.8907C27.3774 19.7684 27.2965 19.6639 27.1959 19.5771C27.0953 19.4903 26.9759 19.4242 26.8378 19.3788C26.7017 19.3314 26.5508 19.3078 26.3851 19.3078C26.0911 19.3078 25.8376 19.3798 25.6245 19.5238C25.4134 19.6678 25.2507 19.8759 25.1363 20.1482C25.0238 20.4205 24.9676 20.7499 24.9676 21.1366C24.9676 21.5391 25.0248 21.8764 25.1392 22.1487C25.2556 22.419 25.4184 22.6231 25.6275 22.7612C25.8386 22.8974 26.0882 22.9654 26.3762 22.9654C26.538 22.9654 26.6849 22.9447 26.8171 22.9033C26.9513 22.8619 27.0687 22.8017 27.1693 22.7228C27.2719 22.6419 27.3557 22.5442 27.4208 22.4298C27.4879 22.3134 27.5343 22.1822 27.5599 22.0362L29.0396 22.0451C29.0139 22.3134 28.936 22.5778 28.8058 22.8382C28.6775 23.0986 28.501 23.3363 28.2761 23.5514C28.0512 23.7644 27.7769 23.9341 27.4534 24.0604C27.1318 24.1866 26.7629 24.2498 26.3466 24.2498C25.7982 24.2498 25.3069 24.1294 24.8729 23.8887C24.4408 23.6461 24.0995 23.2929 23.849 22.8293C23.5984 22.3657 23.4731 21.8015 23.4731 21.1366C23.4731 20.4698 23.6004 19.9046 23.8549 19.4409C24.1094 18.9773 24.4537 18.6252 24.8877 18.3845C25.3217 18.1438 25.808 18.0234 26.3466 18.0234C26.7136 18.0234 27.0529 18.0747 27.3646 18.1773C27.6763 18.2779 27.9505 18.4259 28.1873 18.6212C28.424 18.8146 28.6164 19.0523 28.7643 19.3344C28.9123 19.6165 29.004 19.9391 29.0396 20.3021Z" fill="white"/>
</svg>
