<svg width="20" height="18" viewBox="0 0 20 18" fill="none" xmlns="http://www.w3.org/2000/svg">
<path d="M14.5645 6.50922C14.5707 6.50919 14.5769 6.50917 14.5832 6.50917C16.6542 6.50917 18.3332 8.19118 18.3332 10.2661C18.3332 12.1998 16.8748 13.7924 14.9998 14M14.5645 6.50922C14.5769 6.37172 14.5832 6.23247 14.5832 6.09174C14.5832 3.55579 12.5311 1.5 9.99984 1.5C7.60254 1.5 5.63511 3.34389 5.43352 5.69326M14.5645 6.50922C14.4793 7.45632 14.107 8.3205 13.5355 9.01376M5.43352 5.69326C3.31982 5.89477 1.6665 7.67827 1.6665 9.84862C1.6665 11.8681 3.09797 13.5527 4.99984 13.9394M5.43352 5.69326C5.56505 5.68072 5.69836 5.67431 5.83317 5.67431C6.77136 5.67431 7.63712 5.98495 8.33358 6.50917" stroke="black" stroke-opacity="0.6" stroke-width="1.5" stroke-linecap="round" stroke-linejoin="round"/>
<path d="M9.99984 9.83337L9.99984 16.5M9.99984 9.83337C9.41631 9.83337 8.32611 11.4953 7.9165 11.9167M9.99984 9.83337C10.5834 9.83337 11.6736 11.4953 12.0832 11.9167" stroke="black" stroke-opacity="0.6" stroke-width="1.5" stroke-linecap="round" stroke-linejoin="round"/>
</svg>
