<svg width="17" height="16" viewBox="0 0 17 16" fill="none" xmlns="http://www.w3.org/2000/svg">
<path fill-rule="evenodd" clip-rule="evenodd" d="M6.3757 12.6667H3.55881C3.06627 12.6667 2.66699 12.2675 2.66699 11.7749V11.1929C2.66699 10.856 2.80084 10.5328 3.03909 10.2946C3.65457 9.67916 4.00034 8.84434 4.00034 7.97393V5.99997C4.00034 3.42261 6.08971 1.33324 8.66707 1.33324C11.2444 1.33324 13.3338 3.42261 13.3338 5.99997V7.97393C13.3338 8.84434 13.6796 9.67916 14.2951 10.2946C14.5333 10.5328 14.6672 10.856 14.6672 11.1929V11.7749C14.6672 12.2675 14.2679 12.6667 13.7753 12.6667H10.9584C10.9584 12.9044 10.9507 13.3576 10.7117 13.7916C10.316 14.5098 9.54949 15.0001 8.66707 15.0001C7.7846 15.0001 7.01809 14.5098 6.62245 13.7916C6.3834 13.3576 6.3757 12.9044 6.3757 12.6667ZM13.5879 11.0017C13.6387 11.0524 13.6671 11.1212 13.6671 11.1929V11.6667H3.66701V11.1929C3.66701 11.1212 3.69549 11.0524 3.74621 11.0017C4.54922 10.1987 5.00036 9.10955 5.00036 7.97393V5.99997C5.00036 3.9749 6.64201 2.33325 8.66707 2.33325C10.6922 2.33325 12.3338 3.9749 12.3338 5.99997V7.97393C12.3338 9.10955 12.7849 10.1987 13.5879 11.0017ZM9.95843 12.6667H7.37572C7.37572 12.8881 7.39159 13.1153 7.49839 13.3091C7.57286 13.4444 7.67019 13.5653 7.78513 13.6667C8.02013 13.8742 8.32894 14.0001 8.66707 14.0001C9.00521 14.0001 9.31395 13.8742 9.54902 13.6667C9.66395 13.5653 9.76122 13.4444 9.83576 13.3091C9.94256 13.1153 9.95843 12.8881 9.95843 12.6667Z" fill="black"/>
<circle cx="12.667" cy="3.33327" r="2.33337" fill="#D34645" stroke="white" stroke-width="0.666676"/>
</svg>
