<svg width="40" height="40" viewBox="0 0 40 40" fill="none" xmlns="http://www.w3.org/2000/svg">
<path fill-rule="evenodd" clip-rule="evenodd" d="M6.6665 5.8335C6.6665 4.45278 7.78579 3.3335 9.1665 3.3335H25.631C26.294 3.3335 26.9299 3.59689 27.3987 4.06573L32.6009 9.26793C33.0698 9.73677 33.3332 10.3727 33.3332 11.0357V34.1668C33.3332 35.5475 32.2139 36.6668 30.8332 36.6668H9.1665C7.78579 36.6668 6.6665 35.5475 6.6665 34.1668V5.8335ZM31.6665 11.6668H25.8332C25.3729 11.6668 24.9998 11.2937 24.9998 10.8335V5.00016H9.1665C8.70627 5.00016 8.33317 5.37326 8.33317 5.8335V34.1668C8.33317 34.6271 8.70627 35.0002 9.1665 35.0002H30.8332C31.2934 35.0002 31.6665 34.6271 31.6665 34.1668V11.6668Z" fill="#F1F2F4"/>
<path d="M6.6665 15.8335H33.3332V25.8335H6.6665V15.8335Z" fill="#F21E1E"/>
<path d="M12.1255 24.1666V18.106H14.629C15.0828 18.106 15.4744 18.1947 15.8039 18.3723C16.1353 18.5479 16.3908 18.7935 16.5703 19.1092C16.7499 19.4228 16.8396 19.7878 16.8396 20.2041C16.8396 20.6223 16.7479 20.9883 16.5644 21.302C16.3829 21.6137 16.1235 21.8554 15.7861 22.027C15.4488 22.1986 15.0483 22.2845 14.5847 22.2845H13.0399V21.1303H14.3124C14.5334 21.1303 14.7178 21.0919 14.8658 21.0149C15.0157 20.938 15.1292 20.8305 15.2061 20.6924C15.283 20.5523 15.3215 20.3895 15.3215 20.2041C15.3215 20.0167 15.283 19.8549 15.2061 19.7188C15.1292 19.5807 15.0157 19.4741 14.8658 19.3992C14.7158 19.3242 14.5314 19.2867 14.3124 19.2867H13.5903V24.1666H12.1255Z" fill="white"/>
<path d="M19.8019 24.1666H17.5617V18.106H19.7989C20.4164 18.106 20.9481 18.2273 21.394 18.4699C21.8418 18.7106 22.187 19.0579 22.4297 19.5116C22.6724 19.9634 22.7937 20.504 22.7937 21.1333C22.7937 21.7646 22.6724 22.3071 22.4297 22.7609C22.189 23.2147 21.8448 23.5629 21.3969 23.8055C20.9491 24.0462 20.4174 24.1666 19.8019 24.1666ZM19.0265 22.9177H19.7456C20.085 22.9177 20.372 22.8605 20.6068 22.7461C20.8435 22.6297 21.0221 22.4413 21.1424 22.1809C21.2647 21.9185 21.3259 21.5693 21.3259 21.1333C21.3259 20.6973 21.2647 20.3501 21.1424 20.0916C21.0201 19.8312 20.8396 19.6438 20.6009 19.5294C20.3641 19.413 20.0721 19.3548 19.7249 19.3548H19.0265V22.9177Z" fill="white"/>
<path d="M23.6489 24.1666V18.106H27.786V19.2956H25.1138V20.5385H27.5226V21.7311H25.1138V24.1666H23.6489Z" fill="white"/>
</svg>
